<svg width="20" height="20" viewBox="0 0 20 20" fill="none" xmlns="http://www.w3.org/2000/svg">
<path d="M14.5 18.5002C13.2465 18.814 11.6884 19 10 19C8.31159 19 6.75349 18.814 5.5 18.5002M16 14.4305C14.5341 14.9842 12.3894 15.3333 10 15.3333C7.61061 15.3333 5.46589 14.9842 4 14.4305M2.5 9.66785C3.93143 10.5598 6.75311 11.1667 10 11.1667C13.2469 11.1667 16.0686 10.5598 17.5 9.66785M19 4C19 5.65685 14.9706 7 10 7C5.02944 7 1 5.65685 1 4C1 2.34315 5.02944 1 10 1C14.9706 1 19 2.34315 19 4Z" stroke="#344054" stroke-width="2" stroke-linecap="round" stroke-linejoin="round"/>
</svg>
